G04 Layer_Color=8388736*
%FSLAX42Y42*%
%MOMM*%
G71*
G01*
G75*
G04:AMPARAMS|DCode=34|XSize=1.7mm|YSize=1.5mm|CornerRadius=0mm|HoleSize=0mm|Usage=FLASHONLY|Rotation=135.000|XOffset=0mm|YOffset=0mm|HoleType=Round|Shape=Rectangle|*
%AMROTATEDRECTD34*
4,1,4,1.13,-0.07,0.07,-1.13,-1.13,0.07,-0.07,1.13,1.13,-0.07,0.0*
%
%ADD34ROTATEDRECTD34*%

G04:AMPARAMS|DCode=35|XSize=1.7mm|YSize=1.5mm|CornerRadius=0mm|HoleSize=0mm|Usage=FLASHONLY|Rotation=75.000|XOffset=0mm|YOffset=0mm|HoleType=Round|Shape=Rectangle|*
%AMROTATEDRECTD35*
4,1,4,0.50,-1.02,-0.94,-0.63,-0.50,1.02,0.94,0.63,0.50,-1.02,0.0*
%
%ADD35ROTATEDRECTD35*%

G04:AMPARAMS|DCode=36|XSize=1.7mm|YSize=1.5mm|CornerRadius=0mm|HoleSize=0mm|Usage=FLASHONLY|Rotation=15.000|XOffset=0mm|YOffset=0mm|HoleType=Round|Shape=Rectangle|*
%AMROTATEDRECTD36*
4,1,4,-0.63,-0.94,-1.02,0.50,0.63,0.94,1.02,-0.50,-0.63,-0.94,0.0*
%
%ADD36ROTATEDRECTD36*%

%ADD37R,1.70X1.50*%
G04:AMPARAMS|DCode=38|XSize=1.8mm|YSize=1.2mm|CornerRadius=0mm|HoleSize=0mm|Usage=FLASHONLY|Rotation=300.000|XOffset=0mm|YOffset=0mm|HoleType=Round|Shape=Octagon|*
%AMOCTAGOND38*
4,1,8,0.19,-0.93,0.71,-0.63,0.82,-0.22,0.22,0.82,-0.19,0.93,-0.71,0.63,-0.82,0.22,-0.22,-0.82,0.19,-0.93,0.0*
%
%ADD38OCTAGOND38*%

G04:AMPARAMS|DCode=39|XSize=1.8mm|YSize=1.2mm|CornerRadius=0mm|HoleSize=0mm|Usage=FLASHONLY|Rotation=300.000|XOffset=0mm|YOffset=0mm|HoleType=Round|Shape=Rectangle|*
%AMROTATEDRECTD39*
4,1,4,-0.97,0.48,0.07,1.08,0.97,-0.48,-0.07,-1.08,-0.97,0.48,0.0*
%
%ADD39ROTATEDRECTD39*%

G04:AMPARAMS|DCode=40|XSize=1.8mm|YSize=1.2mm|CornerRadius=0mm|HoleSize=0mm|Usage=FLASHONLY|Rotation=270.000|XOffset=0mm|YOffset=0mm|HoleType=Round|Shape=Octagon|*
%AMOCTAGOND40*
4,1,8,-0.30,-0.90,0.30,-0.90,0.60,-0.60,0.60,0.60,0.30,0.90,-0.30,0.90,-0.60,0.60,-0.60,-0.60,-0.30,-0.90,0.0*
%
%ADD40OCTAGOND40*%

%ADD41R,1.20X1.80*%
G04:AMPARAMS|DCode=42|XSize=1.8mm|YSize=1.2mm|CornerRadius=0mm|HoleSize=0mm|Usage=FLASHONLY|Rotation=240.000|XOffset=0mm|YOffset=0mm|HoleType=Round|Shape=Octagon|*
%AMOCTAGOND42*
4,1,8,-0.71,-0.63,-0.19,-0.93,0.22,-0.82,0.82,0.22,0.71,0.63,0.19,0.93,-0.22,0.82,-0.82,-0.22,-0.71,-0.63,0.0*
%
%ADD42OCTAGOND42*%

G04:AMPARAMS|DCode=43|XSize=1.8mm|YSize=1.2mm|CornerRadius=0mm|HoleSize=0mm|Usage=FLASHONLY|Rotation=240.000|XOffset=0mm|YOffset=0mm|HoleType=Round|Shape=Rectangle|*
%AMROTATEDRECTD43*
4,1,4,-0.07,1.08,0.97,0.48,0.07,-1.08,-0.97,-0.48,-0.07,1.08,0.0*
%
%ADD43ROTATEDRECTD43*%

G04:AMPARAMS|DCode=44|XSize=1.8mm|YSize=1.2mm|CornerRadius=0mm|HoleSize=0mm|Usage=FLASHONLY|Rotation=210.000|XOffset=0mm|YOffset=0mm|HoleType=Round|Shape=Octagon|*
%AMOCTAGOND44*
4,1,8,-0.93,-0.19,-0.63,-0.71,-0.22,-0.82,0.82,-0.22,0.93,0.19,0.63,0.71,0.22,0.82,-0.82,0.22,-0.93,-0.19,0.0*
%
%ADD44OCTAGOND44*%

G04:AMPARAMS|DCode=45|XSize=1.8mm|YSize=1.2mm|CornerRadius=0mm|HoleSize=0mm|Usage=FLASHONLY|Rotation=210.000|XOffset=0mm|YOffset=0mm|HoleType=Round|Shape=Rectangle|*
%AMROTATEDRECTD45*
4,1,4,0.48,0.97,1.08,-0.07,-0.48,-0.97,-1.08,0.07,0.48,0.97,0.0*
%
%ADD45ROTATEDRECTD45*%

G04:AMPARAMS|DCode=46|XSize=1.8mm|YSize=1.2mm|CornerRadius=0mm|HoleSize=0mm|Usage=FLASHONLY|Rotation=180.000|XOffset=0mm|YOffset=0mm|HoleType=Round|Shape=Octagon|*
%AMOCTAGOND46*
4,1,8,-0.90,0.30,-0.90,-0.30,-0.60,-0.60,0.60,-0.60,0.90,-0.30,0.90,0.30,0.60,0.60,-0.60,0.60,-0.90,0.30,0.0*
%
%ADD46OCTAGOND46*%

%ADD47R,1.80X1.20*%
G04:AMPARAMS|DCode=48|XSize=1.8mm|YSize=1.2mm|CornerRadius=0mm|HoleSize=0mm|Usage=FLASHONLY|Rotation=150.000|XOffset=0mm|YOffset=0mm|HoleType=Round|Shape=Octagon|*
%AMOCTAGOND48*
4,1,8,-0.63,0.71,-0.93,0.19,-0.82,-0.22,0.22,-0.82,0.63,-0.71,0.93,-0.19,0.82,0.22,-0.22,0.82,-0.63,0.71,0.0*
%
%ADD48OCTAGOND48*%

G04:AMPARAMS|DCode=49|XSize=1.8mm|YSize=1.2mm|CornerRadius=0mm|HoleSize=0mm|Usage=FLASHONLY|Rotation=150.000|XOffset=0mm|YOffset=0mm|HoleType=Round|Shape=Rectangle|*
%AMROTATEDRECTD49*
4,1,4,1.08,0.07,0.48,-0.97,-1.08,-0.07,-0.48,0.97,1.08,0.07,0.0*
%
%ADD49ROTATEDRECTD49*%

G04:AMPARAMS|DCode=50|XSize=1.7mm|YSize=1.5mm|CornerRadius=0mm|HoleSize=0mm|Usage=FLASHONLY|Rotation=345.000|XOffset=0mm|YOffset=0mm|HoleType=Round|Shape=Rectangle|*
%AMROTATEDRECTD50*
4,1,4,-1.02,-0.50,-0.63,0.94,1.02,0.50,0.63,-0.94,-1.02,-0.50,0.0*
%
%ADD50ROTATEDRECTD50*%

%ADD51C,2.30*%
%ADD52C,3.30*%
D34*
X13935Y4511D02*
D03*
X14063Y4639D02*
D03*
X10928Y1474D02*
D03*
X10800Y1346D02*
D03*
D35*
X14482Y2423D02*
D03*
X14656Y2377D02*
D03*
X10351Y3517D02*
D03*
X10177Y3563D02*
D03*
D36*
X12971Y942D02*
D03*
X13017Y768D02*
D03*
X11862Y5058D02*
D03*
X11816Y5232D02*
D03*
D37*
X11944Y2940D02*
D03*
Y3120D02*
D03*
X12904Y2940D02*
D03*
Y3120D02*
D03*
D38*
X14339Y3823D02*
D03*
X14053Y3658D02*
D03*
X14094Y4247D02*
D03*
X10509Y2177D02*
D03*
X10795Y2342D02*
D03*
X10754Y1753D02*
D03*
X14893Y4143D02*
D03*
X14608Y3978D02*
D03*
X14648Y4567D02*
D03*
X9955Y1857D02*
D03*
X10240Y2022D02*
D03*
X10200Y1433D02*
D03*
D39*
X13808Y4082D02*
D03*
X11040Y1918D02*
D03*
X14363Y4402D02*
D03*
X10485Y1598D02*
D03*
D40*
X14494Y2755D02*
D03*
X14164D02*
D03*
X14494Y3245D02*
D03*
X10354D02*
D03*
X10684D02*
D03*
X10354Y2755D02*
D03*
X15134D02*
D03*
X14804D02*
D03*
X15134Y3245D02*
D03*
X9714D02*
D03*
X10044D02*
D03*
X9714Y2755D02*
D03*
D41*
X14164Y3245D02*
D03*
X10684Y2755D02*
D03*
X14804Y3245D02*
D03*
X10044Y2755D02*
D03*
D42*
X14094Y1753D02*
D03*
X13808Y1918D02*
D03*
X14339Y2177D02*
D03*
X10754Y4247D02*
D03*
X11040Y4082D02*
D03*
X10509Y3823D02*
D03*
X14648Y1433D02*
D03*
X14363Y1598D02*
D03*
X14893Y1857D02*
D03*
X10200Y4567D02*
D03*
X10485Y4402D02*
D03*
X9955Y4143D02*
D03*
D43*
X14053Y2342D02*
D03*
X10795Y3658D02*
D03*
X14608Y2022D02*
D03*
X10240Y3978D02*
D03*
D44*
X13247Y1085D02*
D03*
X13082Y1371D02*
D03*
X13671Y1330D02*
D03*
X11601Y4915D02*
D03*
X11766Y4629D02*
D03*
X11177Y4670D02*
D03*
X13567Y531D02*
D03*
X13402Y816D02*
D03*
X13991Y776D02*
D03*
X11281Y5469D02*
D03*
X11446Y5184D02*
D03*
X10857Y5224D02*
D03*
D45*
X13506Y1616D02*
D03*
X11342Y4384D02*
D03*
X13826Y1061D02*
D03*
X11022Y4939D02*
D03*
D46*
X12179Y930D02*
D03*
Y1260D02*
D03*
X12669Y930D02*
D03*
Y5070D02*
D03*
Y4740D02*
D03*
X12179Y5070D02*
D03*
Y290D02*
D03*
Y620D02*
D03*
X12669Y290D02*
D03*
Y5710D02*
D03*
Y5380D02*
D03*
X12179Y5710D02*
D03*
D47*
X12669Y1260D02*
D03*
X12179Y4740D02*
D03*
X12669Y620D02*
D03*
X12179Y5380D02*
D03*
D48*
X11177Y1330D02*
D03*
X11342Y1616D02*
D03*
X11601Y1085D02*
D03*
X13671Y4670D02*
D03*
X13506Y4384D02*
D03*
X13247Y4915D02*
D03*
X13991Y5224D02*
D03*
X13826Y4939D02*
D03*
X13567Y5469D02*
D03*
X10857Y776D02*
D03*
X11022Y1061D02*
D03*
X11281Y531D02*
D03*
D49*
X11766Y1371D02*
D03*
X13082Y4629D02*
D03*
X13402Y5184D02*
D03*
X11446Y816D02*
D03*
D50*
X13017Y5232D02*
D03*
X12971Y5058D02*
D03*
D51*
X12199Y3325D02*
D03*
X12649D02*
D03*
X12199Y2675D02*
D03*
X12649D02*
D03*
D52*
X12244Y4395D02*
D03*
X12604D02*
D03*
X12949Y4305D02*
D03*
X13264Y4140D02*
D03*
M02*
